# xmcd CD database file
#
# Track frame offsets:
#	150
#	16147
#	30909
#	50631
#	67668
#	86359
#	107509
#	126966
#	152161
#	176323
#	196250
#	226286
#	252310
#	272570
#	287617
#
# Disc length: 3859 seconds
#
# Revision: 0
# Processed by: cddbd v1.5.2PL0 Copyright (c) Steve Scherf et al.
# Submitted via: CDex 1.51
#
DISCID=b50f110f
DTITLE=Texana Dames - Months of Sundays
DYEAR=1997
DGENRE=Country
TTITLE0=What's New With You
TTITLE1=Sabor De Engano
TTITLE2=We Be Stylin'
TTITLE3=You 'n' Your Truck
TTITLE4=I'm On Your Side
TTITLE5=Como Te Quiero
TTITLE6=24 Horas
TTITLE7=Afterglow
TTITLE8=El No Tengo
TTITLE9=Fresh Love
TTITLE10=Quiero Ser Solo Tuya
TTITLE11=Hoodoo Dream
TTITLE12=Let Off Some Steam
TTITLE13=San Antonio
TTITLE14=Applause
EXTD=YEAR: 1997
EXTT0=
EXTT1=
EXTT2=
EXTT3=
EXTT4=
EXTT5=
EXTT6=
EXTT7=
EXTT8=
EXTT9=
EXTT10=
EXTT11=
EXTT12=
EXTT13=
EXTT14=
PLAYORDER=
